<?xml version="1.0" encoding="UTF-8"?>
<svg id="Layer_2" data-name="Layer 2" xmlns="http://www.w3.org/2000/svg" viewBox="0 0 512 429.11">
  <g id="OBJECTS">
    <g>
      <g>
        <rect x="11.06" y="16.4" width="204.47" height="161.47" rx="22.13" ry="22.13" transform="translate(-18.82 27.72) rotate(-12.89)" style="fill: #ffffff; stroke-width: 0px;"/>
        <path d="M146.19,134.16l23.75-5.44-54.21-72.53-22.48,5.15-17.16,88.86,23.29-5.33,2.7-17.12,34.23-7.83,9.88,14.24ZM104.99,109.37l4.45-28.18,16.26,23.44-20.71,4.74Z" style="fill: #002ec9; stroke-width: 0px;"/>
      </g>
      <g>
        <rect x="194.87" y="173.91" width="309.43" height="244.36" rx="33.48" ry="33.48" transform="translate(28.92 -31.1) rotate(5.31)" style="fill: #ff4d80; stroke-width: 0px;"/>
        <path d="M429.61,284.03l2.56-27.49-64.48-6,1.69-18.15-27.49-2.56-1.69,18.15-64.48-6-2.56,27.49,19.63,1.83c3.88,13.12,12.8,36.62,31.29,59.15-11.52,5.5-24.78,9.68-40.03,11.51l3.28,27.41c22.44-2.69,41.33-9.52,57.16-18.36,13.92,11.61,31.23,21.81,52.79,28.58l8.28-26.34c-14.66-4.61-26.92-11.16-37.23-18.69,22.32-18.74,35.42-40.19,41.66-52.37l19.63,1.83ZM347.76,315.68c-12.75-14.63-20.45-30.04-24.91-41.58l57.05,5.31c-6.51,10.51-16.92,24.24-32.15,36.27Z" style="fill: #fff; stroke-width: 0px;"/>
      </g>
      <g>
        <path d="M386.06,157.06c0-70.07-86.14-74.12-96.09-74.36v-18.89s-48.3,31.02-48.3,31.02l48.3,31.03v-18.87c85.74.37,96.09,50.07,96.09,50.07Z" style="fill: #fff; stroke-width: 0px;"/>
        <path d="M41.1,217.56c0,70.07,86.14,74.12,96.09,74.36v18.88s48.3-31.02,48.3-31.02l-48.3-31.03v18.87c-85.74-.37-96.09-50.07-96.09-50.07Z" style="fill: #fff; stroke-width: 0px;"/>
      </g>
    </g>
  </g>
</svg>